/* XPM */
static char *ac_html_entity[] = {
/* columns rows colors chars-per-pixel */
"18 12 24 1",
"  c #1233B4",
". c #133CB8",
"X c #1544BC",
"o c #1753C2",
"O c #1E67CA",
"+ c #397BD1",
"@ c #4F8AD6",
"# c #5F94DB",
"$ c #6B9CDD",
"% c #73A2E0",
"& c #79A6E2",
"* c #82ACE3",
"= c #80ABEA",
"- c #8DB3E6",
"; c #97BAEA",
": c #A3C3ED",
"> c #B1CCF0",
", c #B8D0F2",
"< c #CCDDF4",
"1 c #DBE7F7",
"2 c #E3ECF9",
"3 c #EBF2FB",
"4 c #F4F8FD",
"5 c None",
/* pixels */
"5=======&%$##@@++5",
"5=,,,,>>>:::;;--O5",
"5=,::::;;--*&%$*O5",
"5=,3:3444<-1*1#%o5",
"5&>4;4-4*2>4-4@$o5",
"5%:444*4%234*3@$X5",
"5#:4*4&4$2,<*3@#.5",
"5@;4&4$4#1@,&41# 5",
"5@-%$$##@@@++++@ 5",
"5+**&%%$$####@@@ 5",
"5OOOoooXX..      5",
"555555555555555555"
};
